<svg width="16" height="16" viewBox="0 0 16 16" fill="none" xmlns="http://www.w3.org/2000/svg">
<path d="M4.26404 3.704C3.96204 3.42 3.48804 3.434 3.20404 3.736C3.06704 3.881 3.00004 4.065 3.00004 4.25C3.00004 4.449 3.07904 4.648 3.23604 4.796L7.48604 8.796C7.77404 9.068 8.22504 9.068 8.51304 8.796L12.764 4.796C13.067 4.513 13.08 4.037 12.796 3.736C12.513 3.434 12.038 3.42 11.736 3.704L8.00004 7.22L4.26404 3.704ZM13 11.25C13 11.664 12.664 12 12.25 12H3.75004C3.33604 12 3.00004 11.664 3.00004 11.25C3.00004 10.836 3.33604 10.5 3.75004 10.5H12.25C12.664 10.5 13 10.836 13 11.25Z" fill="#9E0059"/>
</svg>
