<svg width="83" height="80" viewBox="0 0 83 80" fill="none" xmlns="http://www.w3.org/2000/svg">
<path fill-rule="evenodd" clip-rule="evenodd" d="M53.8652 64.4353C53.9778 62.5896 49.0298 62.6156 43.0287 64.528C40.8902 65.2147 39.046 65.7316 38.9726 65.7283C38.8993 65.725 39.4654 64.8502 40.219 63.8673C43.8727 59.064 44.1246 58.3248 42.2066 57.9711C40.3817 57.655 39.2765 58.3388 37.2581 60.9652C36.2285 62.3358 35.4086 63.2657 35.4169 63.0326C35.4717 62.8184 35.8483 61.3681 36.2658 59.803C38.2843 52.2912 38.336 44.7736 36.3632 44.6341C33.8573 44.4372 33.0043 46.2994 32.0124 53.8577C31.0428 61.0836 29.6014 66.0706 26.9043 71.4174C24.9306 75.2964 24.9004 75.8618 26.4856 76.1338C27.5912 76.3172 28.4679 75.8567 34.456 71.9429C39.4661 68.685 44.2462 66.884 48.6426 66.583C51.6375 66.4519 53.8111 65.5167 53.8652 64.4353ZM47.9999 52.298C49.5689 50.068 51.5174 43.0532 50.8847 41.9574C49.2833 39.1836 46.5341 41.41 45.3736 46.3262C44.9479 48.1243 44.3392 50.3477 44.0199 51.217C42.8311 54.4145 42.8241 54.4643 43.7493 54.7063C44.8142 55.0047 47.0098 53.7371 47.9999 52.298ZM52.3861 34.9722C53.8294 32.5866 52.7041 22.598 50.5561 18.8158C47.7162 13.835 44.786 17.1705 46.5032 23.4843C47.4269 26.8776 47.9918 31.0716 47.5901 31.3035C47.0278 31.6282 43.6163 31.2236 41.7333 30.6214C37.2621 29.1849 35.168 32.1746 39.4166 33.9679C41.0191 34.6407 46.5372 35.1075 47.3405 34.6437C47.5815 34.5045 47.8002 34.6979 47.9303 35.1707C48.2742 36.5702 51.4961 36.3992 52.3861 34.9722ZM58.6018 20.1975C60.8433 16.1639 60.7939 7.79134 58.5545 7.62318C56.1953 7.43292 55.0432 9.14818 55.052 12.7501C55.0489 14.1673 54.944 16.8303 54.8384 18.6263C54.5277 23.0975 56.5491 23.9395 58.6018 20.1975ZM35.3942 26.3824C35.4783 25.786 35.2205 24.4738 34.8741 23.441C32.7367 17.1414 35.7197 12.908 41.0078 14.8317C45.0786 16.3167 47.1531 13.2926 43.3851 11.4045C35.1382 7.26256 26.5413 16.2439 30.2757 25.0001C31.6476 28.1803 35.0822 29.1194 35.3942 26.3824Z" fill="white"/>
</svg>
