<svg width="32" height="32" viewBox="0 0 32 32" fill="none" xmlns="http://www.w3.org/2000/svg">
<path d="M3.38368 7.13008C6.35647 2.95938 12.5512 2.95489 15.53 7.12128L15.9945 7.77091L16.4118 7.17848C19.3667 2.98324 25.5722 2.94183 28.5829 7.09727C30.6802 9.99213 30.4357 13.9665 27.9994 16.5824L16.7324 28.6803C16.5431 28.8836 16.2777 28.999 15.9999 28.9988C15.7221 28.9986 15.4569 28.8829 15.2679 28.6793L3.9925 16.5392C1.58271 13.9446 1.32836 10.0136 3.38368 7.13008ZM13.9031 8.28449C11.7227 5.23481 7.1883 5.2381 5.0123 8.29094C3.50787 10.4016 3.69405 13.2789 5.45794 15.1781L16.0016 26.5305L26.5358 15.2194C28.3206 13.3029 28.4997 10.3914 26.9633 8.27067C24.7577 5.22646 20.2116 5.25679 18.0469 8.33017L16.8182 10.0747C16.6316 10.3396 16.3282 10.4977 16.0041 10.4988C15.6801 10.5 15.3756 10.344 15.1871 10.0804L13.9031 8.28449Z" fill="url(#paint0_linear_1_388)"/>
<defs>
<linearGradient id="paint0_linear_1_388" x1="16.0017" y1="3.99927" x2="16.0017" y2="28.9988" gradientUnits="userSpaceOnUse">
<stop offset="0.235577" stop-color="#AB0E0E"/>
<stop offset="0.817308" stop-color="#3F0303"/>
</linearGradient>
</defs>
</svg>
