<?xml version="1.0" standalone="no"?>
<!DOCTYPE svg PUBLIC "-//W3C//DTD SVG 20010904//EN"
 "http://www.w3.org/TR/2001/REC-SVG-20010904/DTD/svg10.dtd">
<svg version="1.0" xmlns="http://www.w3.org/2000/svg"
 width="500.000000pt" height="500.000000pt" viewBox="0 0 500.000000 500.000000"
 preserveAspectRatio="xMidYMid meet">

<g transform="translate(0.000000,500.000000) scale(0.100000,-0.100000)"
fill="#000000" stroke="none">
<path d="M3950 3719 c-250 -29 -468 -196 -560 -429 -72 -182 -64 -375 25 -555
71 -146 173 -249 318 -320 103 -50 197 -68 332 -62 132 6 209 28 315 91 225
132 355 381 337 641 -17 233 -147 437 -357 558 -101 58 -280 91 -410 76z"/>
<path d="M2012 3438 c-13 -13 -18 -421 -6 -452 5 -13 27 -16 134 -16 139 0
140 0 140 60 0 55 -7 60 -76 60 l-64 0 0 35 c0 35 0 35 45 35 39 0 45 3 51 25
3 14 3 36 0 50 -6 22 -12 25 -51 25 -45 0 -45 0 -45 35 l0 35 64 0 c49 0 65 4
70 16 9 24 7 63 -4 85 -10 17 -22 19 -128 19 -79 0 -122 -4 -130 -12z"/>
<path d="M3160 3347 c-14 -7 -32 -27 -40 -45 -11 -23 -19 -29 -27 -21 -6 6
-26 9 -44 7 -29 -3 -34 -7 -37 -31 -4 -35 24 -81 44 -73 11 4 27 -19 59 -89
l45 -95 37 16 c21 9 44 18 51 21 16 7 18 0 -28 99 -22 48 -40 91 -40 96 0 5
12 13 26 18 23 9 25 14 19 43 -9 38 -23 67 -33 67 -4 0 -18 -6 -32 -13z"/>
<path d="M2825 3049 c-44 -21 -84 -40 -88 -41 -5 -2 14 -52 42 -111 l50 -107
-39 -16 c-22 -9 -40 -21 -39 -28 0 -6 15 -41 32 -78 l32 -68 42 19 41 19 59
-130 c66 -149 112 -208 178 -234 76 -29 182 4 254 80 l34 35 -40 48 c-23 26
-50 56 -61 66 -20 18 -21 18 -43 -2 -45 -42 -65 -25 -129 111 -27 59 -50 110
-50 113 0 3 25 17 55 31 30 14 55 30 55 35 0 21 -59 139 -70 139 -6 0 -33 -11
-61 -25 l-50 -26 -49 106 c-27 58 -55 105 -62 104 -7 0 -49 -18 -93 -40z"/>
<path d="M355 2880 c-55 -11 -89 -25 -108 -45 -15 -15 -17 -61 -17 -466 l0
-449 110 0 110 0 0 149 0 149 143 4 c164 5 203 17 275 87 61 60 95 137 100
231 2 41 -1 87 -7 103 -9 23 -16 27 -48 27 -57 0 -191 51 -279 105 -108 67
-203 115 -223 114 -9 -1 -34 -5 -56 -9z m318 -197 c39 -20 71 -93 64 -146 -13
-99 -115 -153 -212 -113 -49 21 -75 68 -75 138 0 50 4 62 31 93 49 55 120 66
192 28z"/>
<path d="M2228 2870 c-39 -15 -48 -15 -48 -4 0 11 -19 14 -90 14 l-90 0 0
-261 0 -261 28 8 c15 5 66 9 115 8 l87 -1 1 116 c0 129 12 175 50 204 38 28
123 26 155 -4 36 -34 44 -79 44 -250 0 -154 0 -157 23 -163 71 -19 139 8 178
70 20 32 21 45 18 192 -4 149 -5 160 -32 215 -33 67 -77 101 -158 123 -78 20
-223 18 -281 -6z"/>
<path d="M1280 2813 c-30 -30 -75 -67 -99 -81 l-43 -25 4 -146 c4 -166 18
-213 80 -267 57 -50 125 -68 258 -69 148 0 215 19 273 78 63 63 69 91 74 345
l5 222 -110 0 -110 0 -4 -192 c-2 -157 -6 -199 -20 -224 -46 -83 -192 -68
-217 23 -6 21 -11 118 -11 216 0 135 -3 177 -12 176 -7 -1 -38 -26 -68 -56z"/>
<path d="M2119 2233 c-44 -23 -59 -37 -78 -76 -21 -43 -22 -53 -12 -87 11 -39
55 -100 71 -100 5 0 22 12 39 26 l31 25 -21 28 c-28 38 -21 62 22 85 47 25 69
16 69 -28 0 -42 11 -50 56 -41 51 9 62 44 32 104 -27 53 -77 91 -123 91 -17 0
-56 -12 -86 -27z"/>
<path d="M2907 2181 c-25 -30 -43 -93 -32 -111 4 -6 -7 -23 -24 -39 -38 -35
-39 -53 -5 -80 30 -24 46 -26 72 -10 13 8 36 3 102 -25 46 -20 86 -36 87 -36
5 0 43 79 43 89 0 5 -39 25 -87 44 -57 22 -89 41 -91 52 -8 37 15 37 102 1 47
-20 90 -36 95 -36 10 0 47 88 40 93 -2 2 -50 22 -106 45 -124 51 -162 53 -196
13z"/>
<path d="M2267 1930 c-31 -61 -57 -117 -57 -126 0 -53 60 -104 125 -104 23 0
35 -5 35 -13 0 -18 32 -47 52 -47 34 0 74 69 48 85 -6 4 9 43 40 99 l50 93
-45 24 c-24 13 -46 21 -48 19 -3 -3 -25 -41 -49 -85 -32 -58 -50 -81 -66 -83
-33 -5 -28 20 23 114 33 62 41 85 32 92 -12 10 -73 42 -79 42 -2 0 -29 -50
-61 -110z"/>
<path d="M2685 1916 c-54 -23 -85 -70 -85 -127 0 -57 10 -81 53 -126 37 -39
86 -57 133 -48 57 10 140 97 127 133 -3 7 -14 17 -25 23 -18 10 -25 5 -58 -32
-27 -31 -41 -41 -54 -36 -16 6 -13 13 23 52 22 24 41 54 41 65 0 34 -28 79
-60 95 -35 18 -55 18 -95 1z m55 -130 c-7 -9 -18 -16 -25 -16 -21 0 -26 28 -8
45 14 15 17 15 31 1 13 -12 13 -18 2 -30z"/>
</g>
</svg>
