<svg width="30" height="30" viewBox="0 0 30 30" fill="none" xmlns="http://www.w3.org/2000/svg">
<path d="M18.9426 7.59471C19.0451 7.69751 19.1408 7.80637 19.2291 7.92054C19.4698 8.23143 19.6564 8.5818 19.78 8.95709L20.3273 10.6398C20.3731 10.7695 20.458 10.8818 20.5704 10.9612C20.6827 11.0407 20.817 11.0833 20.9546 11.0833C21.0922 11.0833 21.2265 11.0407 21.3388 10.9612C21.439 10.8903 21.5174 10.7933 21.5657 10.6811C21.5715 10.6676 21.5769 10.6538 21.5819 10.6398L22.1292 8.95709C22.2993 8.44552 22.5866 7.98067 22.9681 7.59947C23.3496 7.21828 23.8148 6.93125 24.3267 6.76119L26.0107 6.21432C26.1405 6.16857 26.2529 6.08371 26.3324 5.97145C26.4119 5.85919 26.4546 5.72505 26.4546 5.58752C26.4546 5.44999 26.4119 5.31585 26.3324 5.20359C26.2529 5.09133 26.1405 5.00647 26.0107 4.96072L25.977 4.95231L24.2931 4.40544C23.7811 4.23538 23.3159 3.94835 22.9344 3.56715C22.5529 3.18596 22.2657 2.7211 22.0955 2.20953L21.5482 0.52685C21.5024 0.397158 21.4175 0.284851 21.3051 0.205412C21.1928 0.125973 21.0585 0.083313 20.9209 0.083313C20.7833 0.083313 20.649 0.125973 20.5367 0.205412C20.4243 0.284851 20.3394 0.397158 20.2936 0.52685L19.7463 2.20953L19.7324 2.2512C19.564 2.7428 19.2871 3.19049 18.922 3.56099C18.5467 3.94193 18.0882 4.23095 17.5824 4.40544L15.8985 4.95231C15.7687 4.99806 15.6563 5.08292 15.5768 5.19518C15.4973 5.30744 15.4546 5.44158 15.4546 5.57911C15.4546 5.71663 15.4973 5.85077 15.5768 5.96303C15.6563 6.0753 15.7687 6.16015 15.8985 6.2059L17.5824 6.75278C18.0953 6.92368 18.5611 7.21199 18.9426 7.59471ZM28.2756 12.4408L29.1941 12.7391L29.2125 12.7437C29.2833 12.7687 29.3446 12.815 29.3879 12.8762C29.4313 12.9374 29.4546 13.0106 29.4546 13.0856C29.4546 13.1606 29.4313 13.2338 29.3879 13.295C29.3446 13.3563 29.2833 13.4025 29.2125 13.4275L28.2939 13.7258C28.0147 13.8186 27.7609 13.9751 27.5529 14.183C27.3448 14.391 27.1881 14.6445 27.0953 14.9236L26.7967 15.8414C26.7718 15.9121 26.7254 15.9734 26.6642 16.0167C26.6029 16.06 26.5297 16.0833 26.4546 16.0833C26.3795 16.0833 26.3063 16.06 26.245 16.0167C26.1837 15.9734 26.1374 15.9121 26.1124 15.8414L25.8139 14.9236C25.7217 14.6437 25.5653 14.3892 25.3572 14.1804C25.149 13.9717 24.895 13.8144 24.6152 13.7212L23.6967 13.4229C23.6259 13.398 23.5646 13.3517 23.5212 13.2904C23.4779 13.2292 23.4546 13.156 23.4546 13.081C23.4546 13.006 23.4779 12.9328 23.5212 12.8716C23.5646 12.8104 23.6259 12.7641 23.6967 12.7391L24.6152 12.4408C24.8911 12.3457 25.1412 12.188 25.3459 11.9802C25.5507 11.7724 25.7046 11.5201 25.7955 11.2431L26.0941 10.3252C26.119 10.2545 26.1654 10.1932 26.2266 10.1499C26.2879 10.1066 26.3611 10.0833 26.4362 10.0833C26.5113 10.0833 26.5845 10.1066 26.6458 10.1499C26.7071 10.1932 26.7534 10.2545 26.7784 10.3252L27.0769 11.2431C27.1697 11.5221 27.3264 11.7757 27.5345 11.9836C27.7426 12.1915 27.9963 12.3481 28.2756 12.4408ZM0.45459 6.33331C0.45459 4.53839 1.90966 3.08331 3.70459 3.08331H11.2046C12.9995 3.08331 14.4546 4.53839 14.4546 6.33331V11.8333C14.4546 13.6282 12.9995 15.0833 11.2046 15.0833H3.70459C1.90966 15.0833 0.45459 13.6282 0.45459 11.8333V6.33331ZM11.4546 21.3333C11.4546 19.5384 12.9097 18.0833 14.7046 18.0833H23.2046C24.9995 18.0833 26.4546 19.5384 26.4546 21.3333V25.8333C26.4546 27.6282 24.9995 29.0833 23.2046 29.0833H14.7046C12.9097 29.0833 11.4546 27.6282 11.4546 25.8333V21.3333ZM0.45459 21.3333C0.45459 19.5384 1.90966 18.0833 3.70459 18.0833H5.20459C6.99952 18.0833 8.45459 19.5384 8.45459 21.3333V25.8333C8.45459 27.6282 6.99952 29.0833 5.20459 29.0833H3.70459C1.90966 29.0833 0.45459 27.6282 0.45459 25.8333V21.3333Z" fill="black"/>
</svg>
