<svg width="20" height="21" viewBox="0 0 20 21" fill="none" xmlns="http://www.w3.org/2000/svg">
<path d="M12.0883 6.41228C12.016 6.31886 11.9377 6.2298 11.8539 6.14569C11.5417 5.83255 11.1606 5.59666 10.741 5.45683L9.36317 5.00939C9.25698 4.97196 9.16502 4.90253 9.09998 4.81068C9.03493 4.71883 9 4.60908 9 4.49656C9 4.38404 9.03493 4.27429 9.09998 4.18244C9.16502 4.09058 9.25698 4.02116 9.36317 3.98372L10.741 3.53628C11.1547 3.39352 11.5299 3.15705 11.837 2.84537C12.1357 2.54224 12.3623 2.17595 12.5 1.77372L12.5114 1.73963L12.9592 0.362894C12.9967 0.256782 13.0662 0.164895 13.1581 0.0998993C13.25 0.0349035 13.3598 0 13.4724 0C13.5851 0 13.6949 0.0349035 13.7868 0.0998993C13.8787 0.164895 13.9482 0.256782 13.9857 0.362894L14.4335 1.73963C14.5727 2.15819 14.8077 2.53853 15.1198 2.85041C15.432 3.1623 15.8126 3.39715 16.2315 3.53628L17.6093 3.98372L17.6368 3.99061C17.743 4.02804 17.835 4.09747 17.9 4.18932C17.9651 4.28117 18 4.39092 18 4.50344C18 4.61596 17.9651 4.72571 17.9 4.81756C17.835 4.90942 17.743 4.97884 17.6368 5.01628L16.259 5.46372C15.8402 5.60285 15.4595 5.8377 15.1474 6.14959C14.8353 6.46147 14.6003 6.84181 14.461 7.26037L14.0132 8.63711C14.0092 8.64855 14.0048 8.65983 14 8.67093C13.9605 8.76273 13.8964 8.84212 13.8144 8.9001C13.7224 8.9651 13.6126 9 13.5 9C13.3874 9 13.2776 8.9651 13.1856 8.9001C13.0937 8.8351 13.0242 8.74322 12.9868 8.63711L12.539 7.26037C12.4378 6.95331 12.2851 6.66664 12.0883 6.41228ZM19.7829 10.2132L19.0175 9.9646C18.7848 9.8873 18.5733 9.75683 18.3999 9.58356C18.2265 9.41029 18.0959 9.199 18.0186 8.96646L17.7698 8.20161C17.749 8.14266 17.7104 8.09161 17.6593 8.0555C17.6083 8.01939 17.5473 8 17.4847 8C17.4221 8 17.3611 8.01939 17.31 8.0555C17.259 8.09161 17.2204 8.14266 17.1996 8.20161L16.9508 8.96646C16.875 9.19736 16.7467 9.40761 16.5761 9.58076C16.4055 9.75392 16.1971 9.88529 15.9672 9.9646L15.2018 10.2132C15.1428 10.234 15.0917 10.2725 15.0555 10.3236C15.0194 10.3746 15 10.4356 15 10.4981C15 10.5606 15.0194 10.6216 15.0555 10.6726C15.0917 10.7236 15.1428 10.7622 15.2018 10.783L15.9672 11.0316C16.2003 11.1093 16.412 11.2403 16.5855 11.4143C16.7589 11.5882 16.8893 11.8003 16.9661 12.0335L17.2149 12.7984C17.2357 12.8573 17.2743 12.9084 17.3254 12.9445C17.3764 12.9806 17.4374 13 17.5 13C17.5626 13 17.6236 12.9806 17.6746 12.9445C17.7257 12.9084 17.7643 12.8573 17.7851 12.7984L18.0339 12.0335C18.1113 11.801 18.2418 11.5897 18.4152 11.4164C18.5886 11.2432 18.8001 11.1127 19.0328 11.0354L19.7982 10.7868C19.8572 10.766 19.9083 10.7275 19.9445 10.6764C19.9806 10.6254 20 10.5644 20 10.5019C20 10.4394 19.9806 10.3784 19.9445 10.3274C19.9083 10.2764 19.8572 10.2378 19.7982 10.217L19.7829 10.2132ZM8.66382 3.19894C8.13053 3.06892 7.57332 3 7 3C3.13401 3 0 6.13401 0 10C0 13.866 3.13401 17 7 17C8.57234 17 10.0236 16.4816 11.1922 15.6064L16.2929 20.7071C16.6834 21.0976 17.3166 21.0976 17.7071 20.7071C18.0976 20.3166 18.0976 19.6834 17.7071 19.2929L12.6064 14.1922C13.4816 13.0236 14 11.5723 14 10L13.9998 9.95186C13.8281 10.0181 13.645 10.0513 13.46 10.049C12.8014 10.047 12.1128 9.62184 11.9 8.99903L11.8992 8.99633C11.9653 9.32057 12 9.65624 12 10C12 12.7614 9.76142 15 7 15C4.23858 15 2 12.7614 2 10C2 7.23858 4.23858 5 7 5C7.39504 5 7.77938 5.04581 8.14799 5.13242C8.05368 4.92233 8.0007 4.69523 8 4.46903C8.00136 3.95152 8.25682 3.48569 8.66382 3.19894Z" fill="#151515"/>
</svg>
